<mxfile host="app.diagrams.net" modified="2022-01-16T12:17:42.735Z" agent="5.0 (Windows)" etag="HzirRJBvQeNnEuLN8LU3" version="16.2.7" type="github">
  <diagram id="nWIB7_Yd370R9p4CmKyw" name="Page-1">
    <mxGraphModel dx="981" dy="532" grid="1" gridSize="10" guides="1" tooltips="1" connect="1" arrows="1" fold="1" page="1" pageScale="1" pageWidth="827" pageHeight="1169" math="0" shadow="0">
      <root>
        <mxCell id="0" />
        <mxCell id="1" parent="0" />
        <mxCell id="g7aGPv1AXsSeZGbPwdgP-33" value="" style="rounded=0;whiteSpace=wrap;html=1;" vertex="1" parent="1">
          <mxGeometry x="200" y="360" width="600" height="80" as="geometry" />
        </mxCell>
        <mxCell id="g7aGPv1AXsSeZGbPwdgP-1" value="" style="rounded=0;whiteSpace=wrap;html=1;" vertex="1" parent="1">
          <mxGeometry x="200" y="120" width="600" height="80" as="geometry" />
        </mxCell>
        <mxCell id="g7aGPv1AXsSeZGbPwdgP-2" value="" style="rounded=0;whiteSpace=wrap;html=1;" vertex="1" parent="1">
          <mxGeometry x="200" y="240" width="600" height="80" as="geometry" />
        </mxCell>
        <mxCell id="g7aGPv1AXsSeZGbPwdgP-3" value="" style="rounded=0;whiteSpace=wrap;html=1;" vertex="1" parent="1">
          <mxGeometry x="200" y="480" width="600" height="80" as="geometry" />
        </mxCell>
        <mxCell id="g7aGPv1AXsSeZGbPwdgP-4" value="&lt;div style=&quot;font-size: 36px&quot;&gt;&lt;font style=&quot;font-size: 36px&quot;&gt;Benachrichtigungsservice&lt;/font&gt;&lt;/div&gt;" style="text;html=1;resizable=0;autosize=1;align=center;verticalAlign=middle;points=[];fillColor=none;strokeColor=none;rounded=0;" vertex="1" parent="1">
          <mxGeometry x="199" y="50" width="430" height="20" as="geometry" />
        </mxCell>
        <mxCell id="g7aGPv1AXsSeZGbPwdgP-5" value="" style="rounded=0;whiteSpace=wrap;html=1;" vertex="1" parent="1">
          <mxGeometry x="200" y="480" width="600" height="80" as="geometry" />
        </mxCell>
        <mxCell id="g7aGPv1AXsSeZGbPwdgP-6" value="&lt;div&gt;&lt;font style=&quot;font-size: 16px&quot;&gt;Datenbase Layer&lt;/font&gt;&lt;/div&gt;" style="text;html=1;resizable=0;autosize=1;align=center;verticalAlign=middle;points=[];fillColor=none;strokeColor=none;rounded=0;fontSize=36;" vertex="1" parent="1">
          <mxGeometry x="35" y="480" width="140" height="60" as="geometry" />
        </mxCell>
        <mxCell id="g7aGPv1AXsSeZGbPwdgP-7" value="&lt;font style=&quot;font-size: 16px&quot;&gt;Persistence Layer&lt;br&gt;&lt;/font&gt;" style="text;html=1;resizable=0;autosize=1;align=center;verticalAlign=middle;points=[];fillColor=none;strokeColor=none;rounded=0;fontSize=36;" vertex="1" parent="1">
          <mxGeometry x="35" y="360" width="140" height="60" as="geometry" />
        </mxCell>
        <mxCell id="g7aGPv1AXsSeZGbPwdgP-8" value="&lt;font style=&quot;font-size: 16px&quot;&gt;Logic Layer&lt;br&gt;&lt;/font&gt;" style="text;html=1;resizable=0;autosize=1;align=center;verticalAlign=middle;points=[];fillColor=none;strokeColor=none;rounded=0;fontSize=36;" vertex="1" parent="1">
          <mxGeometry x="55" y="240" width="100" height="60" as="geometry" />
        </mxCell>
        <mxCell id="g7aGPv1AXsSeZGbPwdgP-9" value="&lt;font style=&quot;font-size: 16px&quot;&gt;Communication Layer&lt;br&gt;&lt;/font&gt;" style="text;html=1;resizable=0;autosize=1;align=center;verticalAlign=middle;points=[];fillColor=none;strokeColor=none;rounded=0;fontSize=36;" vertex="1" parent="1">
          <mxGeometry x="20" y="120" width="170" height="60" as="geometry" />
        </mxCell>
        <mxCell id="g7aGPv1AXsSeZGbPwdgP-10" style="edgeStyle=orthogonalEdgeStyle;rounded=0;orthogonalLoop=1;jettySize=auto;html=1;exitX=0;exitY=0;exitDx=0;exitDy=39.375;exitPerimeter=0;entryX=0.25;entryY=1;entryDx=0;entryDy=0;dashed=1;fontSize=16;endArrow=classic;endFill=1;" edge="1" parent="1" source="g7aGPv1AXsSeZGbPwdgP-11" target="g7aGPv1AXsSeZGbPwdgP-14">
          <mxGeometry relative="1" as="geometry" />
        </mxCell>
        <mxCell id="g7aGPv1AXsSeZGbPwdgP-54" style="edgeStyle=orthogonalEdgeStyle;rounded=0;orthogonalLoop=1;jettySize=auto;html=1;exitX=1;exitY=0;exitDx=0;exitDy=39.375;exitPerimeter=0;entryX=0.75;entryY=1;entryDx=0;entryDy=0;dashed=1;fontSize=16;endArrow=classic;endFill=1;" edge="1" parent="1" source="g7aGPv1AXsSeZGbPwdgP-11" target="g7aGPv1AXsSeZGbPwdgP-48">
          <mxGeometry relative="1" as="geometry" />
        </mxCell>
        <mxCell id="g7aGPv1AXsSeZGbPwdgP-11" value="&lt;div&gt;Database&lt;/div&gt;" style="shape=cylinder3;whiteSpace=wrap;html=1;boundedLbl=1;backgroundOutline=1;size=15;fontSize=16;" vertex="1" parent="1">
          <mxGeometry x="465" y="490" width="70" height="62.5" as="geometry" />
        </mxCell>
        <mxCell id="g7aGPv1AXsSeZGbPwdgP-12" style="edgeStyle=orthogonalEdgeStyle;rounded=0;orthogonalLoop=1;jettySize=auto;html=1;exitX=0.75;exitY=1;exitDx=0;exitDy=0;entryX=0;entryY=0;entryDx=0;entryDy=23.125;entryPerimeter=0;dashed=1;fontSize=16;endArrow=classic;endFill=1;" edge="1" parent="1" source="g7aGPv1AXsSeZGbPwdgP-14" target="g7aGPv1AXsSeZGbPwdgP-11">
          <mxGeometry relative="1" as="geometry" />
        </mxCell>
        <mxCell id="g7aGPv1AXsSeZGbPwdgP-13" style="edgeStyle=orthogonalEdgeStyle;rounded=0;orthogonalLoop=1;jettySize=auto;html=1;exitX=0.75;exitY=0;exitDx=0;exitDy=0;entryX=0.25;entryY=1;entryDx=0;entryDy=0;dashed=1;fontSize=16;endArrow=classic;endFill=1;" edge="1" parent="1" source="g7aGPv1AXsSeZGbPwdgP-14" target="g7aGPv1AXsSeZGbPwdgP-23">
          <mxGeometry relative="1" as="geometry" />
        </mxCell>
        <mxCell id="g7aGPv1AXsSeZGbPwdgP-14" value="&lt;div&gt;Integrations-&lt;/div&gt;&lt;div&gt;Konfiguration&lt;br&gt;&lt;/div&gt;&lt;div&gt;dao&lt;br&gt;&lt;/div&gt;" style="rounded=1;whiteSpace=wrap;html=1;fontSize=16;" vertex="1" parent="1">
          <mxGeometry x="320" y="370" width="120" height="60" as="geometry" />
        </mxCell>
        <mxCell id="g7aGPv1AXsSeZGbPwdgP-20" style="edgeStyle=orthogonalEdgeStyle;rounded=0;orthogonalLoop=1;jettySize=auto;html=1;exitX=0;exitY=1;exitDx=0;exitDy=0;entryX=0.25;entryY=0;entryDx=0;entryDy=0;dashed=1;fontSize=16;endArrow=classic;endFill=1;" edge="1" parent="1" source="g7aGPv1AXsSeZGbPwdgP-23" target="g7aGPv1AXsSeZGbPwdgP-14">
          <mxGeometry relative="1" as="geometry">
            <Array as="points">
              <mxPoint x="440" y="330" />
              <mxPoint x="350" y="330" />
            </Array>
          </mxGeometry>
        </mxCell>
        <mxCell id="g7aGPv1AXsSeZGbPwdgP-21" style="edgeStyle=orthogonalEdgeStyle;rounded=0;orthogonalLoop=1;jettySize=auto;html=1;exitX=1;exitY=0.25;exitDx=0;exitDy=0;entryX=0.25;entryY=1;entryDx=0;entryDy=0;dashed=1;fontSize=16;endArrow=classic;endFill=1;" edge="1" parent="1" source="g7aGPv1AXsSeZGbPwdgP-23" target="g7aGPv1AXsSeZGbPwdgP-30">
          <mxGeometry relative="1" as="geometry" />
        </mxCell>
        <mxCell id="g7aGPv1AXsSeZGbPwdgP-22" style="edgeStyle=orthogonalEdgeStyle;rounded=0;orthogonalLoop=1;jettySize=auto;html=1;exitX=0;exitY=0.25;exitDx=0;exitDy=0;entryX=0.75;entryY=1;entryDx=0;entryDy=0;dashed=1;fontSize=16;endArrow=classic;endFill=1;" edge="1" parent="1" source="g7aGPv1AXsSeZGbPwdgP-23" target="g7aGPv1AXsSeZGbPwdgP-27">
          <mxGeometry relative="1" as="geometry" />
        </mxCell>
        <mxCell id="g7aGPv1AXsSeZGbPwdgP-44" style="edgeStyle=orthogonalEdgeStyle;rounded=0;orthogonalLoop=1;jettySize=auto;html=1;exitX=0.25;exitY=0;exitDx=0;exitDy=0;entryX=0.75;entryY=1;entryDx=0;entryDy=0;dashed=1;fontSize=16;endArrow=classic;endFill=1;" edge="1" parent="1" source="g7aGPv1AXsSeZGbPwdgP-23" target="g7aGPv1AXsSeZGbPwdgP-38">
          <mxGeometry relative="1" as="geometry" />
        </mxCell>
        <mxCell id="g7aGPv1AXsSeZGbPwdgP-23" value="&lt;div&gt;Benutzer&lt;/div&gt;&lt;div&gt;Objekt&lt;br&gt;&lt;/div&gt;" style="rounded=1;whiteSpace=wrap;html=1;fontSize=16;" vertex="1" parent="1">
          <mxGeometry x="440" y="250" width="120" height="60" as="geometry" />
        </mxCell>
        <mxCell id="g7aGPv1AXsSeZGbPwdgP-24" style="edgeStyle=orthogonalEdgeStyle;rounded=0;orthogonalLoop=1;jettySize=auto;html=1;exitX=0.25;exitY=1;exitDx=0;exitDy=0;dashed=1;fontSize=16;endArrow=classic;endFill=1;entryX=0;entryY=0.75;entryDx=0;entryDy=0;" edge="1" parent="1" source="g7aGPv1AXsSeZGbPwdgP-27" target="g7aGPv1AXsSeZGbPwdgP-23">
          <mxGeometry relative="1" as="geometry">
            <Array as="points">
              <mxPoint x="250" y="295" />
            </Array>
            <mxPoint x="430" y="290" as="targetPoint" />
          </mxGeometry>
        </mxCell>
        <mxCell id="g7aGPv1AXsSeZGbPwdgP-25" value="&lt;div&gt;&lt;br&gt;&lt;/div&gt;&lt;div&gt;&lt;br&gt;&lt;/div&gt;" style="edgeStyle=orthogonalEdgeStyle;rounded=0;orthogonalLoop=1;jettySize=auto;html=1;dashed=1;fontSize=16;endArrow=classic;endFill=1;entryX=0.25;entryY=0;entryDx=0;entryDy=0;" edge="1" parent="1" target="g7aGPv1AXsSeZGbPwdgP-27">
          <mxGeometry relative="1" as="geometry">
            <mxPoint x="350" y="90" as="targetPoint" />
            <mxPoint x="253" y="90" as="sourcePoint" />
          </mxGeometry>
        </mxCell>
        <mxCell id="g7aGPv1AXsSeZGbPwdgP-26" style="edgeStyle=orthogonalEdgeStyle;rounded=0;orthogonalLoop=1;jettySize=auto;html=1;exitX=0.75;exitY=0;exitDx=0;exitDy=0;dashed=1;fontSize=16;endArrow=classic;endFill=1;" edge="1" parent="1" source="g7aGPv1AXsSeZGbPwdgP-27">
          <mxGeometry relative="1" as="geometry">
            <mxPoint x="317" y="90" as="targetPoint" />
          </mxGeometry>
        </mxCell>
        <mxCell id="g7aGPv1AXsSeZGbPwdgP-27" value="&lt;div&gt;&lt;font style=&quot;font-size: 16px&quot;&gt;Benachrichtigungs&lt;/font&gt;&lt;/div&gt;&lt;div&gt;&lt;font style=&quot;font-size: 16px&quot;&gt;API&lt;br&gt;&lt;/font&gt;&lt;/div&gt;" style="rounded=1;whiteSpace=wrap;html=1;fontSize=16;" vertex="1" parent="1">
          <mxGeometry x="220" y="130" width="130" height="60" as="geometry" />
        </mxCell>
        <mxCell id="g7aGPv1AXsSeZGbPwdgP-28" style="edgeStyle=orthogonalEdgeStyle;rounded=0;orthogonalLoop=1;jettySize=auto;html=1;exitX=0.75;exitY=1;exitDx=0;exitDy=0;dashed=1;fontSize=16;endArrow=classic;endFill=1;entryX=1;entryY=0.75;entryDx=0;entryDy=0;" edge="1" parent="1" source="g7aGPv1AXsSeZGbPwdgP-30" target="g7aGPv1AXsSeZGbPwdgP-23">
          <mxGeometry relative="1" as="geometry">
            <Array as="points" />
            <mxPoint x="590" y="290" as="targetPoint" />
          </mxGeometry>
        </mxCell>
        <mxCell id="g7aGPv1AXsSeZGbPwdgP-29" style="edgeStyle=orthogonalEdgeStyle;rounded=0;orthogonalLoop=1;jettySize=auto;html=1;dashed=1;fontSize=16;endArrow=classic;endFill=1;entryX=0.75;entryY=0;entryDx=0;entryDy=0;" edge="1" parent="1" target="g7aGPv1AXsSeZGbPwdgP-30">
          <mxGeometry relative="1" as="geometry">
            <mxPoint x="590" y="100" as="targetPoint" />
            <mxPoint x="750" y="90" as="sourcePoint" />
            <Array as="points">
              <mxPoint x="750" y="110" />
              <mxPoint x="750" y="110" />
            </Array>
          </mxGeometry>
        </mxCell>
        <mxCell id="g7aGPv1AXsSeZGbPwdgP-30" value="&lt;div&gt;Teams&lt;/div&gt;&lt;div&gt;Integration&lt;br&gt;&lt;/div&gt;" style="rounded=1;whiteSpace=wrap;html=1;fontSize=16;" vertex="1" parent="1">
          <mxGeometry x="660" y="130" width="120" height="60" as="geometry" />
        </mxCell>
        <mxCell id="g7aGPv1AXsSeZGbPwdgP-31" style="edgeStyle=orthogonalEdgeStyle;rounded=0;orthogonalLoop=1;jettySize=auto;html=1;exitX=0.25;exitY=0;exitDx=0;exitDy=0;dashed=1;fontSize=16;endArrow=classic;endFill=1;" edge="1" parent="1" source="g7aGPv1AXsSeZGbPwdgP-30">
          <mxGeometry relative="1" as="geometry">
            <mxPoint x="690" y="90" as="targetPoint" />
            <mxPoint x="650" y="130" as="sourcePoint" />
            <Array as="points">
              <mxPoint x="690" y="110" />
              <mxPoint x="690" y="110" />
            </Array>
          </mxGeometry>
        </mxCell>
        <mxCell id="g7aGPv1AXsSeZGbPwdgP-41" style="edgeStyle=orthogonalEdgeStyle;rounded=0;orthogonalLoop=1;jettySize=auto;html=1;exitX=0.25;exitY=1;exitDx=0;exitDy=0;entryX=0.75;entryY=0;entryDx=0;entryDy=0;dashed=1;fontSize=16;endArrow=classic;endFill=1;" edge="1" parent="1" source="g7aGPv1AXsSeZGbPwdgP-37" target="g7aGPv1AXsSeZGbPwdgP-23">
          <mxGeometry relative="1" as="geometry" />
        </mxCell>
        <mxCell id="g7aGPv1AXsSeZGbPwdgP-58" style="edgeStyle=orthogonalEdgeStyle;rounded=0;orthogonalLoop=1;jettySize=auto;html=1;exitX=0.25;exitY=0;exitDx=0;exitDy=0;dashed=1;fontSize=16;endArrow=classic;endFill=1;" edge="1" parent="1" source="g7aGPv1AXsSeZGbPwdgP-37">
          <mxGeometry relative="1" as="geometry">
            <mxPoint x="550.0344827586207" y="90" as="targetPoint" />
          </mxGeometry>
        </mxCell>
        <mxCell id="g7aGPv1AXsSeZGbPwdgP-59" style="edgeStyle=orthogonalEdgeStyle;rounded=0;orthogonalLoop=1;jettySize=auto;html=1;dashed=1;fontSize=16;endArrow=classic;endFill=1;entryX=0.75;entryY=0;entryDx=0;entryDy=0;" edge="1" parent="1" target="g7aGPv1AXsSeZGbPwdgP-37">
          <mxGeometry relative="1" as="geometry">
            <mxPoint x="600" y="100" as="targetPoint" />
            <mxPoint x="610" y="90" as="sourcePoint" />
          </mxGeometry>
        </mxCell>
        <mxCell id="g7aGPv1AXsSeZGbPwdgP-37" value="&lt;div&gt;Slack&lt;/div&gt;&lt;div&gt;Integration&lt;br&gt;&lt;/div&gt;" style="rounded=1;whiteSpace=wrap;html=1;fontSize=16;" vertex="1" parent="1">
          <mxGeometry x="520" y="130" width="120" height="60" as="geometry" />
        </mxCell>
        <mxCell id="g7aGPv1AXsSeZGbPwdgP-45" style="edgeStyle=orthogonalEdgeStyle;rounded=0;orthogonalLoop=1;jettySize=auto;html=1;exitX=0.25;exitY=1;exitDx=0;exitDy=0;entryX=0;entryY=0;entryDx=0;entryDy=0;dashed=1;fontSize=16;endArrow=classic;endFill=1;" edge="1" parent="1" source="g7aGPv1AXsSeZGbPwdgP-38" target="g7aGPv1AXsSeZGbPwdgP-23">
          <mxGeometry relative="1" as="geometry" />
        </mxCell>
        <mxCell id="g7aGPv1AXsSeZGbPwdgP-56" style="edgeStyle=orthogonalEdgeStyle;rounded=0;orthogonalLoop=1;jettySize=auto;html=1;exitX=0.25;exitY=0;exitDx=0;exitDy=0;dashed=1;fontSize=16;endArrow=classic;endFill=1;" edge="1" parent="1" source="g7aGPv1AXsSeZGbPwdgP-38">
          <mxGeometry relative="1" as="geometry">
            <mxPoint x="410.0344827586207" y="90" as="targetPoint" />
          </mxGeometry>
        </mxCell>
        <mxCell id="g7aGPv1AXsSeZGbPwdgP-57" style="edgeStyle=orthogonalEdgeStyle;rounded=0;orthogonalLoop=1;jettySize=auto;html=1;dashed=1;fontSize=16;endArrow=classic;endFill=1;entryX=0.75;entryY=0;entryDx=0;entryDy=0;" edge="1" parent="1" target="g7aGPv1AXsSeZGbPwdgP-38">
          <mxGeometry relative="1" as="geometry">
            <mxPoint x="499.68965517241395" y="90" as="targetPoint" />
            <mxPoint x="470" y="90" as="sourcePoint" />
          </mxGeometry>
        </mxCell>
        <mxCell id="g7aGPv1AXsSeZGbPwdgP-38" value="&lt;div&gt;Email&lt;/div&gt;&lt;div&gt;Integration&lt;br&gt;&lt;/div&gt;" style="rounded=1;whiteSpace=wrap;html=1;fontSize=16;" vertex="1" parent="1">
          <mxGeometry x="380" y="130" width="120" height="60" as="geometry" />
        </mxCell>
        <mxCell id="g7aGPv1AXsSeZGbPwdgP-39" value="" style="endArrow=classic;dashed=1;html=1;rounded=0;fontSize=16;endFill=1;exitX=1;exitY=0;exitDx=0;exitDy=0;entryX=0.75;entryY=1;entryDx=0;entryDy=0;" edge="1" parent="1" source="g7aGPv1AXsSeZGbPwdgP-23" target="g7aGPv1AXsSeZGbPwdgP-37">
          <mxGeometry width="50" height="50" relative="1" as="geometry">
            <mxPoint x="380" y="310" as="sourcePoint" />
            <mxPoint x="430" y="260" as="targetPoint" />
            <Array as="points">
              <mxPoint x="560" y="230" />
              <mxPoint x="610" y="230" />
            </Array>
          </mxGeometry>
        </mxCell>
        <mxCell id="g7aGPv1AXsSeZGbPwdgP-55" style="edgeStyle=orthogonalEdgeStyle;rounded=0;orthogonalLoop=1;jettySize=auto;html=1;exitX=0.25;exitY=1;exitDx=0;exitDy=0;entryX=1;entryY=0;entryDx=0;entryDy=23.125;entryPerimeter=0;dashed=1;fontSize=16;endArrow=classic;endFill=1;" edge="1" parent="1" source="g7aGPv1AXsSeZGbPwdgP-48" target="g7aGPv1AXsSeZGbPwdgP-11">
          <mxGeometry relative="1" as="geometry" />
        </mxCell>
        <mxCell id="g7aGPv1AXsSeZGbPwdgP-48" value="&lt;div&gt;Benachrichtungs&lt;/div&gt;&lt;div&gt;einstellungen&lt;/div&gt;&lt;div&gt;dao&lt;br&gt;&lt;/div&gt;" style="rounded=1;whiteSpace=wrap;html=1;fontSize=16;" vertex="1" parent="1">
          <mxGeometry x="560" y="370" width="120" height="60" as="geometry" />
        </mxCell>
        <mxCell id="g7aGPv1AXsSeZGbPwdgP-50" value="" style="endArrow=classic;dashed=1;html=1;rounded=0;fontSize=16;exitX=0.25;exitY=0;exitDx=0;exitDy=0;entryX=0.75;entryY=1;entryDx=0;entryDy=0;endFill=1;" edge="1" parent="1" source="g7aGPv1AXsSeZGbPwdgP-48" target="g7aGPv1AXsSeZGbPwdgP-23">
          <mxGeometry width="50" height="50" relative="1" as="geometry">
            <mxPoint x="380" y="380" as="sourcePoint" />
            <mxPoint x="430" y="330" as="targetPoint" />
            <Array as="points">
              <mxPoint x="590" y="350" />
              <mxPoint x="530" y="350" />
            </Array>
          </mxGeometry>
        </mxCell>
        <mxCell id="g7aGPv1AXsSeZGbPwdgP-51" value="" style="endArrow=classic;dashed=1;html=1;rounded=0;fontSize=16;entryX=0.75;entryY=0;entryDx=0;entryDy=0;exitX=1;exitY=1;exitDx=0;exitDy=0;endFill=1;" edge="1" parent="1" source="g7aGPv1AXsSeZGbPwdgP-23" target="g7aGPv1AXsSeZGbPwdgP-48">
          <mxGeometry width="50" height="50" relative="1" as="geometry">
            <mxPoint x="380" y="380" as="sourcePoint" />
            <mxPoint x="430" y="330" as="targetPoint" />
            <Array as="points">
              <mxPoint x="560" y="330" />
              <mxPoint x="650" y="330" />
            </Array>
          </mxGeometry>
        </mxCell>
      </root>
    </mxGraphModel>
  </diagram>
</mxfile>
